<svg width="64" height="64" viewBox="0 0 64 64" fill="none" xmlns="http://www.w3.org/2000/svg">
<rect width="64" height="64" rx="32" fill="#FFD3A2"/>
<path d="M49.2953 13.3482L34.3047 24.4819L37.0768 17.9132L49.2953 13.3482Z" fill="#E2761B" stroke="#E2761B" stroke-width="0.150659" stroke-linecap="round" stroke-linejoin="round"/>
<path d="M14.6893 13.3482L29.5594 24.5874L26.9229 17.9132L14.6893 13.3482ZM43.9021 39.1561L39.9097 45.2729L48.452 47.6232L50.9078 39.2917L43.9021 39.1561ZM13.1074 39.2917L15.5481 47.6232L24.0905 45.2729L20.098 39.1561L13.1074 39.2917Z" fill="#E4761B" stroke="#E4761B" stroke-width="0.150659" stroke-linecap="round" stroke-linejoin="round"/>
<path d="M23.6084 28.821L21.228 32.4218L29.7101 32.7984L29.4088 23.6835L23.6084 28.821ZM40.3768 28.821L34.5011 23.5781L34.3052 32.7984L42.7723 32.4218L40.3768 28.821ZM24.0906 45.273L29.1828 42.7871L24.7836 39.3521L24.0906 45.273ZM34.8024 42.7871L39.9098 45.273L39.2017 39.3521L34.8024 42.7871Z" fill="#E4761B" stroke="#E4761B" stroke-width="0.150659" stroke-linecap="round" stroke-linejoin="round"/>
<path d="M39.9095 45.273L34.8022 42.7872L35.209 46.1167L35.1638 47.5179L39.9095 45.273ZM24.0903 45.273L28.8361 47.5179L28.806 46.1167L29.1826 42.7872L24.0903 45.273Z" fill="#D7C1B3" stroke="#D7C1B3" stroke-width="0.150659" stroke-linecap="round" stroke-linejoin="round"/>
<path d="M28.9112 37.1526L24.6626 35.9021L27.6607 34.5311L28.9112 37.1526ZM35.0731 37.1526L36.3236 34.5311L39.3368 35.9021L35.0731 37.1526Z" fill="#233447" stroke="#233447" stroke-width="0.150659" stroke-linecap="round" stroke-linejoin="round"/>
<path d="M24.0901 45.2731L24.8133 39.1563L20.0977 39.2919L24.0901 45.2731ZM39.1862 39.1563L39.9093 45.2731L43.9018 39.2919L39.1862 39.1563ZM42.7719 32.4219L34.3048 32.7985L35.0882 37.1526L36.3387 34.5311L39.3519 35.9021L42.7719 32.4219ZM24.6626 35.9021L27.6758 34.5311L28.9112 37.1526L29.7097 32.7985L21.2276 32.4219L24.6626 35.9021Z" fill="#CD6116" stroke="#CD6116" stroke-width="0.150659" stroke-linecap="round" stroke-linejoin="round"/>
<path d="M21.228 32.4219L24.7836 39.3522L24.6631 35.9021L21.228 32.4219ZM39.3523 35.9021L39.2017 39.3522L42.7723 32.4219L39.3523 35.9021ZM29.7101 32.7985L28.9116 37.1526L29.906 42.2901L30.132 35.5255L29.7101 32.7985ZM34.3052 32.7985L33.8985 35.5104L34.0793 42.2901L35.0887 37.1526L34.3052 32.7985Z" fill="#E4751F" stroke="#E4751F" stroke-width="0.150659" stroke-linecap="round" stroke-linejoin="round"/>
<path d="M35.0882 37.1526L34.0788 42.29L34.802 42.7872L39.2012 39.3522L39.3519 35.9021L35.0882 37.1526ZM24.6626 35.9021L24.7831 39.3522L29.1824 42.7872L29.9055 42.29L28.9112 37.1526L24.6626 35.9021Z" fill="#F6851B" stroke="#F6851B" stroke-width="0.150659" stroke-linecap="round" stroke-linejoin="round"/>
<path d="M35.1638 47.5178L35.209 46.1167L34.8323 45.7852H29.1525L28.806 46.1167L28.8361 47.5178L24.0903 45.273L25.7476 46.6289L29.1073 48.9641H34.8775L38.2523 46.6289L39.9095 45.273L35.1638 47.5178Z" fill="#C0AD9E" stroke="#C0AD9E" stroke-width="0.150659" stroke-linecap="round" stroke-linejoin="round"/>
<path d="M34.8019 42.7871L34.0787 42.2899H29.9055L29.1823 42.7871L28.8057 46.1167L29.1522 45.7852H34.832L35.2087 46.1167L34.8019 42.7871Z" fill="#161616" stroke="#161616" stroke-width="0.150659" stroke-linecap="round" stroke-linejoin="round"/>
<path d="M49.9285 25.2051L51.2091 19.0582L49.2957 13.3482L34.8023 24.1053L40.3767 28.8209L48.2562 31.126L50.0038 29.0921L49.2505 28.5497L50.4558 27.4499L49.5217 26.7268L50.727 25.8077L49.9285 25.2051ZM12.791 19.0582L14.0716 25.2051L13.2581 25.8077L14.4633 26.7268L13.5443 27.4499L14.7496 28.5497L13.9963 29.0921L15.7289 31.126L23.6083 28.8209L29.1827 24.1053L14.6893 13.3482L12.791 19.0582Z" fill="#763D16" stroke="#763D16" stroke-width="0.150659" stroke-linecap="round" stroke-linejoin="round"/>
<path d="M48.2562 31.1262L40.3767 28.8212L42.7722 32.4219L39.2016 39.3522L43.9021 39.292H50.9078L48.2562 31.1262ZM23.6084 28.8212L15.7289 31.1262L13.1074 39.292H20.098L24.7835 39.3522L21.2279 32.4219L23.6084 28.8212ZM34.3052 32.7986L34.8023 24.1055L37.0924 17.9134H26.9229L29.1827 24.1055L29.7101 32.7986L29.8908 35.5406L29.9059 42.2901H34.0792L34.1093 35.5406L34.3052 32.7986Z" fill="#F6851B" stroke="#F6851B" stroke-width="0.150659" stroke-linecap="round" stroke-linejoin="round"/>
</svg>
