<svg width="64" height="64" viewBox="0 0 64 64" fill="none" xmlns="http://www.w3.org/2000/svg">
<rect width="64" height="64" rx="32" fill="#DDEBFF"/>
<g clip-path="url(#clip0_1072_4731)">
<mask id="mask0_1072_4731" style="mask-type:luminance" maskUnits="userSpaceOnUse" x="14" y="14" width="36" height="36">
<path d="M14 14H50V50H14V14Z" fill="white"/>
</mask>
<g mask="url(#mask0_1072_4731)">
<path d="M31.9999 49.955C41.9162 49.955 49.9549 41.9163 49.9549 32C49.9549 22.0837 41.9162 14.045 31.9999 14.045C22.0836 14.045 14.0449 22.0837 14.0449 32C14.0449 41.9163 22.0836 49.955 31.9999 49.955Z" fill="#3396FF"/>
<path d="M25.0266 27.4068C28.8778 23.6512 35.122 23.6512 38.9732 27.4068L39.4367 27.8588C39.6293 28.0466 39.6293 28.351 39.4367 28.5388L37.8512 30.085C37.7549 30.1788 37.5988 30.1788 37.5025 30.085L36.8647 29.463C34.1779 26.843 29.8219 26.843 27.1351 29.463L26.452 30.1291C26.3557 30.2229 26.1997 30.2229 26.1034 30.1291L24.5179 28.5829C24.3253 28.3951 24.3253 28.0907 24.5179 27.9029L25.0266 27.4068ZM42.2523 30.6045L43.6635 31.9806C43.8561 32.1683 43.8561 32.4728 43.6635 32.6605L37.3005 38.8655C37.1079 39.0533 36.7957 39.0533 36.6031 38.8655L32.0871 34.4617C32.039 34.4147 31.9609 34.4147 31.9128 34.4617L27.3968 38.8655C27.2043 39.0533 26.8921 39.0533 26.6995 38.8655L20.3363 32.6604C20.1438 32.4727 20.1438 32.1682 20.3363 31.9805L21.7475 30.6044C21.94 30.4166 22.2522 30.4166 22.4448 30.6044L26.9609 35.0082C27.0091 35.0552 27.0871 35.0552 27.1352 35.0082L31.6512 30.6044C31.8437 30.4165 32.1559 30.4165 32.3485 30.6044L36.8646 35.0082C36.9127 35.0552 36.9908 35.0552 37.0389 35.0082L41.555 30.6045C41.7475 30.4166 42.0597 30.4166 42.2523 30.6045Z" fill="white"/>
</g>
</g>
<defs>
<clipPath id="clip0_1072_4731">
<rect width="36" height="36" fill="white" transform="translate(14 14)"/>
</clipPath>
</defs>
</svg>
